# xmcd
#
# Track frame offsets:
#       150
#       8703
#       19993
#       37035
#       57323
#       73980
#       88475
#       101520
#
# Disc length: 1502 seconds
#
# Revision: 4
# Processed by: cddbd v1.5.2PL0 Copyright (c) Steve Scherf et al.
# Submitted via: FreeDbEdit v0.1
# Normalized: r1:TDELIM( - ),TSWAP
#
DISCID=6e05dc08
DTITLE=Various Artist - A Country Christmas
DYEAR=1900
DGENRE=
TTITLE0=Charlie Pride - Let It Snow, Let It Snow, Let It Snow
TTITLE1=Leon Everette - Every Time I Hear Blue Christmas (I Get the Chri
TTITLE1=stmas Blues)
TTITLE2=Louise Mandress/RC Bannon - Christmas Is Just a Song for Us This
TTITLE2=Year
TTITLE3=Razzy Bailey - Peace on Earth (A Song for All Seasons)
TTITLE4=Alabama - Christmas in Dixie
TTITLE5=Jim Ed Brown/Helen Cornelius - Fall Softly Snow
TTITLE6=Steve Wariner - Noel, Noel
TTITLE7=Willie Nelson - Pretty Paper
EXTD=
EXTT0=
EXTT1=
EXTT2=
EXTT3=
EXTT4=
EXTT5=
EXTT6=
EXTT7=
PLAYORDER=
